name C:\Users\antoi\Documents\MyRepositories\upper-imu-dc\Results\main_tracking\Case_70\ABD01_linearAccelerations_bodyFrame.mot
datacolumns 4
datarows 94
range 8.06000000 8.99000000
endheader 
time	radius_imu_x	radius_imu_y	radius_imu_z	
          8.06000000	         -3.56150929	         -1.80688026	          9.65779102	
          8.07000000	         -3.50747169	         -1.67931361	          9.73817398	
          8.08000000	         -3.43600824	         -1.55232433	          9.81170008	
          8.09000000	         -3.34982951	         -1.42586517	          9.87887186	
          8.10000000	         -3.25164163	         -1.29993033	          9.93990262	
          8.11000000	         -3.14404713	         -1.17457360	          9.99471603	
          8.12000000	         -3.02939016	         -1.04989727	         10.04300911	
          8.13000000	         -2.90962182	         -0.92603589	         10.08430594	
          8.14000000	         -2.78624651	         -0.80313697	         10.11802976	
          8.15000000	         -2.66037348	         -0.68135487	         10.14355962	
          8.16000000	         -2.53273923	         -0.56085346	         10.16028095	
          8.17000000	         -2.40381842	         -0.44180726	         10.16762000	
          8.18000000	         -2.27403120	         -0.32438816	         10.16512121	
          8.19000000	         -2.14387078	         -0.20872911	         10.15258127	
          8.20000000	         -2.01407952	         -0.09488997	         10.13009171	
          8.21000000	         -1.88584541	          0.01716524	         10.09803104	
          8.22000000	         -1.76074243	          0.12757059	         10.05699135	
          8.23000000	         -1.64044645	          0.23654744	         10.00771970	
          8.24000000	         -1.52667382	          0.34438026	          9.95101077	
          8.25000000	         -1.42091831	          0.45140218	          9.88768014	
          8.26000000	         -1.32429228	          0.55798890	          9.81852526	
          8.27000000	         -1.23742195	          0.66457708	          9.74438998	
          8.28000000	         -1.16046966	          0.77168454	          9.66622978	
          8.29000000	         -1.09327933	          0.87991306	          9.58517698	
          8.30000000	         -1.03555563	          0.98991867	          9.50253312	
          8.31000000	         -0.98704419	          1.10235686	          9.41969526	
          8.32000000	         -0.94761249	          1.21782150	          9.33803679	
          8.33000000	         -0.91726260	          1.33679801	          9.25881225	
          8.34000000	         -0.89624775	          1.45963823	          9.18312204	
          8.35000000	         -0.88475321	          1.58653204	          9.11167919	
          8.36000000	         -0.88291250	          1.71752170	          9.04496299	
          8.37000000	         -0.89094698	          1.85251848	          8.98338697	
          8.38000000	         -0.90893000	          1.99132244	          8.92739436	
          8.39000000	         -0.93689404	          2.13364685	          8.87741226	
          8.40000000	         -0.97473256	          2.27916594	          8.83389698	
          8.41000000	         -1.02222196	          2.42754755	          8.79726189	
          8.42000000	         -1.07899039	          2.57846328	          8.76772410	
          8.43000000	         -1.14447149	          2.73158363	          8.74520741	
          8.44000000	         -1.21777116	          2.88655020	          8.72919168	
          8.45000000	         -1.29763124	          3.04295761	          8.71871035	
          8.46000000	         -1.38240182	          3.20035288	          8.71244267	
          8.47000000	         -1.47001797	          3.35825442	          8.70886449	
          8.48000000	         -1.55812165	          3.51618172	          8.70642831	
          8.49000000	         -1.64408284	          3.67368135	          8.70374257	
          8.50000000	         -1.72510973	          3.83033649	          8.69967510	
          8.51000000	         -1.79836004	          3.98577138	          8.69345530	
          8.52000000	         -1.86109157	          4.13965312	          8.68470789	
          8.53000000	         -1.91077865	          4.29170104	          8.67344613	
          8.54000000	         -1.94526318	          4.44170844	          8.66004754	
          8.55000000	         -1.96286181	          4.58956210	          8.64515456	
          8.56000000	         -1.96236331	          4.73524664	          8.62949521	
          8.57000000	         -1.94317966	          4.87882486	          8.61362850	
          8.58000000	         -1.90536696	          5.02039694	          8.59768725	
          8.59000000	         -1.84954496	          5.16006029	          8.58125480	
          8.60000000	         -1.77686140	          5.29787925	          8.56338377	
          8.61000000	         -1.68893565	          5.43388028	          8.54280783	
          8.62000000	         -1.58776006	          5.56807300	          8.51825558	
          8.63000000	         -1.47562160	          5.70048230	          8.48875006	
          8.64000000	         -1.35507619	          5.83116369	          8.45380715	
          8.65000000	         -1.22897232	          5.96018129	          8.41351137	
          8.66000000	         -1.10046957	          6.08755334	          8.36849081	
          8.67000000	         -0.97299326	          6.21319300	          8.31981680	
          8.68000000	         -0.85009642	          6.33687901	          8.26884755	
          8.69000000	         -0.73523893	          6.45827908	          8.21703075	
          8.70000000	         -0.63151895	          6.57702622	          8.16567975	
          8.71000000	         -0.54140427	          6.69282267	          8.11574989	
          8.72000000	         -0.46653525	          6.80552429	          8.06764989	
          8.73000000	         -0.40766389	          6.91516501	          8.02114200	
          8.74000000	         -0.36472217	          7.02192307	          7.97539182	
          8.75000000	         -0.33695113	          7.12606021	          7.92915923	
          8.76000000	         -0.32304861	          7.22786083	          7.88104217	
          8.77000000	         -0.32135049	          7.32758899	          7.82970820	
          8.78000000	         -0.33003190	          7.42546773	          7.77402647	
          8.79000000	         -0.34732872	          7.52167987	          7.71298697	
          8.80000000	         -0.37153062	          7.61638944	          7.64549878	
          8.81000000	         -0.40063804	          7.70995994	          7.57199400	
          8.82000000	         -0.43357962	          7.80247976	          7.49030994	
          8.83000000	         -0.46932694	          7.89414838	          7.39936701	
          8.84000000	         -0.50697530	          7.98511854	          7.29869094	
          8.85000000	         -0.54584267	          8.07540934	          7.18850349	
          8.86000000	         -0.58439224	          8.16480794	          7.06963189	
          8.87000000	         -0.62276026	          8.25306814	          6.94443620	
          8.88000000	         -0.66038741	          8.33974329	          6.81566592	
          8.89000000	         -0.69658447	          8.42426733	          6.68612641	
          8.90000000	         -0.73071154	          8.50601053	          6.55818653	
          8.91000000	         -0.76202174	          8.58437786	          6.43342497	
          8.92000000	         -0.78954279	          8.65892435	          6.31257420	
          8.93000000	         -0.81206628	          8.72943605	          6.19568302	
          8.94000000	         -0.82830678	          8.79594617	          6.08240977	
          8.95000000	         -0.83702093	          8.85869062	          5.97236457	
          8.96000000	         -0.83698568	          8.91807307	          5.86595749	
          8.97000000	         -0.82802344	          8.97444226	          5.76329676	
          8.98000000	         -0.81055043	          9.02806348	          5.66465013	
          8.99000000	         -0.78534439	          9.07909478	          5.57022321	
